# xmcd
#
# Track frame offsets:
#	150
#	15875
#	32327
#	47465
#	63250
#	80335
#	98117
#	115102
#	128162
#	140320
#
# Disc length: 2115 seconds
#
# Revision: 0
# Processed by: cddbd v1.5.1PL0 Copyright (c) Steve Scherf et al.
# Submitted via: dBpowerAMP V4.0
#
DISCID=6a08410a
DTITLE=Various Artist - Country Love Song Of the 90's
DYEAR=1900
DGENRE=Country
TTITLE0=Alabama-Forever's As Far As I'll Go
TTITLE1=Tanya Tucker-My Arms Stay Open All Night
TTITLE2=Diamond Rio-Meet Me In The Middle
TTITLE3=Hal Ketchum-Sure Love
TTITLE4=Conway Twitty-Crazy In Love
TTITLE5=Doug Stone-Too Busy Being In Love
TTITLE6=Shenandoah-I Want to Be Loved Like That
TTITLE7=Don Williams-True Love
TTITLE8=Restless Heart-You Can Depend On Me
TTITLE9=Keith Whitley-It Ain't Nothin'
EXTD=
EXTT0=
EXTT1=
EXTT2=
EXTT3=
EXTT4=
EXTT5=
EXTT6=
EXTT7=
EXTT8=
EXTT9=
PLAYORDER=
